<svg width="205" height="205" viewBox="0 0 205 205" fill="none" xmlns="http://www.w3.org/2000/svg">
<rect width="205" height="205" rx="102.5" fill="#000611"/>
<path d="M72.577 113.35V38.8045H97.7652C103.613 38.8045 108.394 39.8601 112.106 41.9713C115.843 44.0581 118.61 46.8851 120.405 50.4523C122.201 54.0194 123.099 57.999 123.099 62.3912C123.099 66.7833 122.201 70.7751 120.405 74.3665C118.634 77.9579 115.892 80.8213 112.179 82.9567C108.467 85.0679 103.71 86.1234 97.9108 86.1234H79.8568V78.1156H97.6196C101.624 78.1156 104.839 77.424 107.265 76.0409C109.692 74.6577 111.451 72.7892 112.543 70.4354C113.659 68.0573 114.218 65.3759 114.218 62.3912C114.218 59.4065 113.659 56.7372 112.543 54.3834C111.451 52.0296 109.68 50.1853 107.229 48.8507C104.778 47.4918 101.526 46.8123 97.474 46.8123H81.604V113.35H72.577Z" fill="#FFF7ED"/>
<path d="M77.9 82V137.35" stroke="#FFF7ED" stroke-width="10.66"/>
<path d="M84.8399 137.35H70.1092C70.1092 137.35 69.1885 136.084 70.1092 134.818C71.0299 133.551 72.4351 126.588 72.4351 126.588V94.3H83.2893V126.588C83.2893 126.588 84.4856 133.828 84.8399 134.818C85.1942 135.807 85.222 136.361 84.8399 137.35Z" fill="#BDFF00" stroke="#BDFF00" stroke-width="2.05" stroke-linejoin="round"/>
<path d="M71.627 95.325C83.1891 99.425 83.1891 99.425 84.1526 99.425" stroke="#417600" stroke-width="0.41" stroke-linecap="round"/>
<path d="M71.627 106.6C83.1891 110.7 83.1891 110.7 84.1526 110.7" stroke="#417600" stroke-width="0.41" stroke-linecap="round"/>
<path d="M71.627 118.9C83.1891 123 83.1891 123 84.1526 123" stroke="#417600" stroke-width="0.41" stroke-linecap="round"/>
<path d="M70.6635 130.175C82.9964 133.455 86.4008 134.617 86.0796 134.275" stroke="#417600" stroke-width="0.41" stroke-linecap="round"/>
<path d="M95.127 166.65V92.1045H120.315C126.163 92.1045 130.944 93.1601 134.656 95.2713C138.393 97.3581 141.16 100.185 142.955 103.752C144.751 107.319 145.649 111.299 145.649 115.691C145.649 120.083 144.751 124.075 142.955 127.667C141.184 131.258 138.442 134.121 134.729 136.257C131.017 138.368 126.26 139.423 120.461 139.423H102.407V131.416H120.17C124.174 131.416 127.389 130.724 129.815 129.341C132.242 127.958 134.001 126.089 135.093 123.735C136.209 121.357 136.768 118.676 136.768 115.691C136.768 112.706 136.209 110.037 135.093 107.683C134.001 105.33 132.23 103.485 129.779 102.151C127.328 100.792 124.076 100.112 120.024 100.112H104.154V166.65H95.127Z" fill="#FFF7ED"/>
<path d="M100.45 135.3V190.65" stroke="#FFF7ED" stroke-width="10.66"/>
<path d="M107.39 190.65H92.6592C92.6592 190.65 91.7385 189.384 92.6592 188.118C93.5799 186.851 94.9851 179.887 94.9851 179.887V147.6H105.839V179.887C105.839 179.887 107.036 187.128 107.39 188.118C107.744 189.107 107.772 189.661 107.39 190.65Z" fill="#BDFF00" stroke="#BDFF00" stroke-width="2.05" stroke-linejoin="round"/>
<path d="M94.177 148.625C105.739 152.725 105.739 152.725 106.703 152.725" stroke="#417600" stroke-width="0.41" stroke-linecap="round"/>
<path d="M94.177 159.9C105.739 164 105.739 164 106.703 164" stroke="#417600" stroke-width="0.41" stroke-linecap="round"/>
<path d="M94.177 172.2C105.739 176.3 105.739 176.3 106.703 176.3" stroke="#417600" stroke-width="0.41" stroke-linecap="round"/>
<path d="M93.2135 183.475C105.546 186.755 108.951 187.917 108.63 187.575" stroke="#417600" stroke-width="0.41" stroke-linecap="round"/>
</svg>
